<?xml version="1.0" encoding="UTF-8" standalone="no"?>
<!DOCTYPE svg PUBLIC "-//W3C//DTD SVG 1.1//EN" "http://www.w3.org/Graphics/SVG/1.1/DTD/svg11.dtd">
<!-- Created with Vectornator (http://vectornator.io/) -->
<svg height="48.0pt" stroke-miterlimit="10" style="fill-rule:nonzero;clip-rule:evenodd;stroke-linecap:round;stroke-linejoin:round;" version="1.1" viewBox="0 0 48 48" width="48.0pt" xml:space="preserve" xmlns="http://www.w3.org/2000/svg" xmlns:xlink="http://www.w3.org/1999/xlink">
<defs/>
<clipPath id="ArtboardFrame">
<rect height="48" width="48" x="0" y="0"/>
</clipPath>
<g clip-path="url(#ArtboardFrame)" id="Layer-1">
<path d="M17.0882 44.5894C17.0882 44.5894 17.1091 45.151 17.1091 45.7193C17.1091 46.2876 17.0359 47.0257 17.0359 47.0257C17.0359 47.0257 16.6296 47.8393 16.078 47.9534C15.5264 48.0675 13.2387 47.9362 13.2387 47.9362C13.2387 47.9362 7.23524 48.4043 5.76186 40.7825L5.59982 29.5797C5.59982 29.5797 5.25561 26.3756 0.647669 25.0878C0.647669 25.0878-0.00785231 24.1046 7.12572e-05 23.322C0.00546116 22.7897 0.561275 21.7554 0.561275 21.7554C0.561275 21.7554 5.33828 20.0944 5.33199 16.6762L5.60663 6.63694C5.60663 6.63694 6.32409 0.449215 12.1504 0.0363734L16.285 0C16.285 0 17.4722 0.704595 17.4318 1.54263C17.3914 2.38067 16.3698 3.51099 16.3698 3.51099L12.303 3.73168C12.303 3.73168 9.63485 5.14396 9.29785 6.68529C8.96085 8.22661 9.34243 17.3786 9.34243 17.3786C9.34243 17.3786 8.94641 20.6313 6.18075 22.9418L6.20661 23.8993C6.20661 23.8993 8.6862 25.0286 9.27595 28.9986L9.33558 40.5772C9.33558 40.5772 10.3676 42.7022 12.1274 43.5529L16.0635 43.8697C16.0635 43.8697 17.049 44.0318 17.0882 44.5894Z" fill="#203941" fill-rule="nonzero" opacity="1" stroke="none"/>
<path d="M30.9118 44.5894C30.9118 44.5894 30.8909 45.151 30.8909 45.7193C30.8909 46.2876 30.9641 47.0257 30.9641 47.0257C30.9641 47.0257 31.3704 47.8393 31.922 47.9534C32.4736 48.0675 34.7613 47.9362 34.7613 47.9362C34.7613 47.9362 40.7648 48.4043 42.2381 40.7825L42.4002 29.5797C42.4002 29.5797 42.7444 26.3756 47.3523 25.0878C47.3523 25.0878 48.0079 24.1046 47.9999 23.322C47.9945 22.7897 47.4387 21.7554 47.4387 21.7554C47.4387 21.7554 42.6617 20.0944 42.668 16.6762L42.3934 6.63694C42.3934 6.63694 41.6759 0.449215 35.8496 0.0363734L31.715 0C31.715 0 30.5278 0.704595 30.5682 1.54263C30.6086 2.38067 31.6302 3.51099 31.6302 3.51099L35.697 3.73168C35.697 3.73168 38.3651 5.14396 38.7021 6.68529C39.0392 8.22661 38.6576 17.3786 38.6576 17.3786C38.6576 17.3786 39.0536 20.6313 41.8193 22.9418L41.7934 23.8993C41.7934 23.8993 39.3138 25.0286 38.7241 28.9986L38.6644 40.5772C38.6644 40.5772 37.6324 42.7022 35.8726 43.5529L31.9365 43.8697C31.9365 43.8697 30.951 44.0318 30.9118 44.5894Z" fill="#203941" fill-rule="nonzero" opacity="1" stroke="none"/>
</g>
</svg>
