<?xml version="1.0" encoding="UTF-8" standalone="no"?>
<!DOCTYPE svg PUBLIC "-//W3C//DTD SVG 1.1//EN" "http://www.w3.org/Graphics/SVG/1.1/DTD/svg11.dtd">
<!-- Created with Vectornator (http://vectornator.io/) -->
<svg height="48.0pt" stroke-miterlimit="10" style="fill-rule:nonzero;clip-rule:evenodd;stroke-linecap:round;stroke-linejoin:round;" version="1.1" viewBox="0 0 48 48" width="48.0pt" xml:space="preserve" xmlns="http://www.w3.org/2000/svg" xmlns:xlink="http://www.w3.org/1999/xlink">
<defs/>
<clipPath id="ArtboardFrame">
<rect height="48" width="48" x="0" y="0"/>
</clipPath>
<g clip-path="url(#ArtboardFrame)" id="Layer-1">
<path d="M0.0122901 21.9904C0.0122901 21.9904-0.157583 21.1697 0.765778 21.1615C1.68914 21.1533 2.78536 21.1599 2.78536 21.1599C2.78536 21.1599 3.62912 21.4173 3.51354 22.1156C3.39796 22.8139 3.60033 32.4735 3.60033 32.4735L44.0963 32.7138L44.0689 22.1458C44.0689 22.1458 43.9752 21.3376 44.7445 21.3019C45.5137 21.2661 47.0742 21.3153 47.0742 21.3153C47.0742 21.3153 47.7338 21.2127 47.708 22.1324C47.6823 23.0522 48 42.1518 48 42.1518C48 42.1518 46.9922 47.019 41.4332 48L4.98973 47.6637C4.98973 47.6637 0.491593 46.861 0.0996907 42.8823L0.0122901 21.9904Z" fill="#203941" fill-rule="nonzero" opacity="1" stroke="none"/>
<path d="M3.27145 35.8909L44.2868 35.867L44.1723 41.7543C44.1723 41.7543 44.4884 44.6726 40.8761 44.6581L7.0939 44.5054C7.0939 44.5054 3.552 44.8083 3.51813 42.339L3.27145 35.8909Z" fill="#28ad79" fill-rule="nonzero" opacity="1" stroke="none"/>
<path d="M21.7976 0.86009C21.7976 0.86009 21.9393 0.0559582 22.9292 0.0191436C23.919-0.017671 24.8141 0.00993994 24.8141 0.00993994C24.8141 0.00993994 25.8807-0.121258 25.8742 0.79104C25.8677 1.70334 25.8472 20.7764 25.8472 20.7764C25.8472 20.7764 25.7695 21.4499 26.1785 21.036C26.5875 20.6221 33.103 15.0714 33.103 15.0714C33.103 15.0714 33.9746 14.6094 34.6407 15.133C35.3068 15.6567 35.7484 16.3022 35.7484 16.3022C35.7484 16.3022 36.1495 17.0161 35.4598 17.6524C34.7702 18.2887 24.7861 27.0869 24.7861 27.0869C24.7861 27.0869 24.3523 27.6214 23.5661 27.144C22.78 26.6667 12.7458 18.394 11.9679 17.1885C11.6536 16.7016 11.6593 16.333 11.9564 15.9295C12.2545 15.5249 13.2364 14.846 13.4409 14.7248C14.1431 14.3088 14.5251 14.7615 15.0983 15.0905C15.6715 15.4195 21.5091 20.8588 21.5091 20.8588C21.5091 20.8588 22.132 21.6604 21.9135 20.6792L21.7976 0.86009Z" fill="#203941" fill-rule="nonzero" opacity="1" stroke="none"/>
</g>
</svg>
