<?xml version="1.0" encoding="UTF-8" standalone="no"?>
<!DOCTYPE svg PUBLIC "-//W3C//DTD SVG 1.1//EN" "http://www.w3.org/Graphics/SVG/1.1/DTD/svg11.dtd">
<!-- Created with Vectornator (http://vectornator.io/) -->
<svg height="350.0pt" stroke-miterlimit="10" style="fill-rule:nonzero;clip-rule:evenodd;stroke-linecap:round;stroke-linejoin:round;" version="1.1" viewBox="0 0 1600 350" width="1600.0pt" xml:space="preserve" xmlns="http://www.w3.org/2000/svg" xmlns:xlink="http://www.w3.org/1999/xlink">
<defs/>
<path d="M0 0L1600 0L1600 350L0 350L0 0Z" fill="#ffffff" fill-rule="nonzero" opacity="1" stroke="none"/>
<clipPath id="ArtboardFrame">
<rect height="350" width="1600" x="0" y="0"/>
</clipPath>
<g clip-path="url(#ArtboardFrame)" id="Layer-1">
<path d="M0 0L1600 0L1600 350L0 350L0 0Z" fill="#28ad7b" fill-rule="nonzero" opacity="1" stroke="#213841" stroke-linecap="butt" stroke-linejoin="round" stroke-width="5"/>
<path d="M0 66.8189L1576.95 63.2335L1600 63.1811M0 106.819L1576.95 103.233L1600 103.181M0 146.819L1576.95 143.233L1600 143.181M0 186.819L1576.95 183.233L1600 183.181M0 226.819L1576.95 223.233L1600 223.181M0 266.819L1576.95 263.233L1600 263.181M0 306.819L1576.95 303.233L1600 303.181M0 23.2421L1600 23.1811M1560 350L1561 0M1520 350L1521 0M1480 350L1481 0M1440 350L1441 0M1400 350L1401 0M1360 350L1361 0M1320 350L1321 0M1280 350L1281 0M1240 350L1241 0M1200 350L1201 0M1160 350L1161 0M1120 350L1121 0M1080 350L1081 0M1040 350L1041 0M1000 350L1001 0M960 350L960.996 0M920 350L920.996 0M880 350L880.996 0M840 350L840.996 0M799.004 350L800 0M760 350L760.996 0M720 350L720.996 0M680 350L680.996 0M640 350L640.996 0M600 350L600.996 0M560 350L560.996 0M520 350L520.996 0M480 350L480.996 0M440 350L440.996 0M400 350L400.996 0M360 350L360.996 0M320 350L320.996 0M280 350L280.996 0M240 350L240.996 0M200 350L200.996 0M160 350L160.996 0M120 350L120.996 0M80 350L80.9961 0M40 350L40.9961 0" fill="none" opacity="0.2" stroke="#eeefed" stroke-linecap="butt" stroke-linejoin="round" stroke-width="5"/>
<path d="M555.412 230.32C553.123 230.393 551.041 231.175 549.573 232.683C548.269 234.021 547.45 235.931 547.4 238.423C546.804 267.986 546.649 297.579 547.752 327.128C547.827 329.141 548.081 331.031 549.513 332.478C550.833 333.813 553.867 335.171 555.765 335.231C584.688 336.149 613.657 336.167 642.58 335.231C644.184 335.179 647.977 335.155 650.238 333.448C652.169 331.991 652.702 328.976 652.882 327.299L653.143 285.745L652.794 237.74C652.684 235.789 652.463 233.727 651.06 232.335C649.894 231.179 647.058 230.446 645.398 230.405C615.412 229.665 585.392 229.367 555.412 230.32Z" fill="#203941" fill-rule="nonzero" opacity="1" stroke="none"/>
<path d="M555.139 240.134L555.208 273.894C555.208 273.894 555.297 274.957 556.543 275.295L594.45 275.279C594.45 275.279 596.328 275.578 596.379 273.262L596.221 239.81C596.221 239.81 596.206 238.393 594.766 238.159L556.211 238.153C556.211 238.153 555.136 238.453 555.139 240.134Z" fill="#27ab79" fill-rule="nonzero" opacity="1" stroke="none"/>
<path d="M604.398 240.265L604.467 274.025C604.467 274.025 604.556 275.088 605.802 275.427L643.709 275.41C643.709 275.41 645.587 275.709 645.638 273.394L645.48 239.942C645.48 239.942 645.465 238.524 644.026 238.29L605.47 238.284C605.47 238.284 604.395 238.584 604.398 240.265Z" fill="#eff0ed" fill-rule="nonzero" opacity="1" stroke="none"/>
<path d="M604.438 284.34L604.507 325.466C604.507 325.466 604.596 326.761 605.841 327.173L643.748 327.153C643.748 327.153 645.626 327.517 645.677 324.696L645.52 283.947C645.52 283.947 645.505 282.22 644.065 281.935L605.51 281.927C605.51 281.927 604.434 282.293 604.438 284.34Z" fill="#eff0ed" fill-rule="nonzero" opacity="1" stroke="none"/>
<path d="M555.011 284.976L555.08 325.34C555.08 325.34 555.169 326.611 556.415 327.016L594.322 326.996C594.322 326.996 596.2 327.354 596.251 324.585L596.093 284.589C596.093 284.589 596.078 282.894 594.638 282.615L556.083 282.608C556.083 282.608 555.007 282.967 555.011 284.976Z" fill="#eff0ed" fill-rule="nonzero" opacity="1" stroke="none"/>
<text fill="#000000" font-family="Arial-BoldMT" font-size="100" opacity="0.85" stroke="none" text-anchor="start" transform="matrix(1 0 0 1 262.486 45.419)" x="0" y="0">
<tspan textLength="1061.67" x="0" y="90.5273"><![CDATA[Free Excel Generators]]></tspan>
</text>
<text fill="#000000" font-family="Arial-BoldMT" font-size="45" opacity="0.85" stroke="none" text-anchor="start" transform="matrix(1 0 0 1 333.597 159.253)" x="0" y="0">
<tspan textLength="932.805" x="0" y="40.7373"><![CDATA[Free, easy to use custom Excel tools online]]></tspan>
</text>
<path d="M793.806 320.251C793.806 320.251 793.863 321.474 793.863 322.711C793.863 323.949 793.663 325.555 793.663 325.555C793.663 325.555 792.552 327.327 791.044 327.575C789.535 327.823 783.279 327.538 783.279 327.538C783.279 327.538 766.86 328.557 762.83 311.963L762.387 287.574C762.387 287.574 761.446 280.598 748.844 277.795C748.844 277.795 747.051 275.654 747.073 273.951C747.087 272.792 748.607 270.54 748.607 270.54C748.607 270.54 761.672 266.924 761.655 259.482L762.406 237.626C762.406 237.626 764.368 224.155 780.302 223.256L791.61 223.177C791.61 223.177 794.857 224.711 794.746 226.535C794.636 228.36 791.842 230.82 791.842 230.82L780.719 231.301C780.719 231.301 773.422 234.375 772.501 237.731C771.579 241.087 772.623 261.011 772.623 261.011C772.623 261.011 771.54 268.093 763.976 273.123L764.047 275.207C764.047 275.207 770.828 277.666 772.441 286.309L772.604 311.517C772.604 311.517 775.426 316.143 780.239 317.995L791.004 318.684C791.004 318.684 793.699 319.037 793.806 320.251Z" fill="#203941" fill-rule="nonzero" opacity="1" stroke="none"/>
<path d="M806.194 310.58C806.194 310.58 806.137 311.543 806.137 312.517C806.137 313.491 806.337 314.756 806.337 314.756C806.337 314.756 807.448 316.15 808.956 316.345C810.465 316.541 816.721 316.316 816.721 316.316C816.721 316.316 833.14 317.118 837.17 304.056L837.613 284.858C837.613 284.858 838.554 279.366 851.156 277.16C851.156 277.16 852.949 275.475 852.927 274.133C852.913 273.221 851.393 271.449 851.393 271.449C851.393 271.449 838.328 268.602 838.345 262.744L837.594 245.539C837.594 245.539 835.632 234.935 819.698 234.228L808.39 234.165C808.39 234.165 805.143 235.373 805.254 236.809C805.364 238.245 808.158 240.182 808.158 240.182L819.281 240.56C819.281 240.56 826.578 242.981 827.499 245.622C828.421 248.264 827.377 263.948 827.377 263.948C827.377 263.948 828.46 269.522 836.024 273.482L835.953 275.123C835.953 275.123 829.172 277.058 827.559 283.862L827.396 303.705C827.396 303.705 824.574 307.346 819.761 308.804L808.996 309.347C808.996 309.347 806.301 309.625 806.194 310.58Z" fill="#203941" fill-rule="nonzero" opacity="1" stroke="none"/>
<path d="M954.449 326.117L954.461 237.384C954.461 237.384 956.405 227.547 968.583 227.491C980.762 227.435 984.58 227.287 984.58 227.287L984.612 218.79C984.612 218.79 984.063 215.534 989.797 215.441C995.531 215.349 994.386 220.641 994.386 220.641L994.323 227.049L1047.94 226.467L1047.89 217.808C1047.89 217.808 1047.12 214.958 1052.72 215.126C1058.32 215.293 1057.44 219 1057.44 219L1057.65 226.467L1076.06 226.467C1076.06 226.467 1088.18 229.546 1088 242.809C1087.82 256.072 1086.18 325.646 1086.18 325.646C1086.18 325.646 1087.01 335.787 1072.45 335.895C1057.9 336.004 967.025 335.794 967.025 335.794C967.025 335.794 958.951 337.281 954.449 326.117Z" fill="#1f3941" fill-rule="nonzero" opacity="1" stroke="none"/>
<path d="M963.496 254.097L963.567 240.654C963.567 240.654 962.728 235.914 969.098 235.885C975.468 235.856 984.498 235.933 984.498 235.933L984.588 242.123C984.588 242.123 986.611 245.125 989.571 245.018C992.532 244.91 994.241 241.993 994.241 241.993L994.471 235.777L1047.56 236.113L1047.71 241.844C1047.71 241.844 1048.11 244.696 1052.3 244.663C1056.48 244.631 1056.19 242.043 1056.19 242.043L1056.43 235.95L1072.53 235.875C1072.53 235.875 1077.46 235.945 1077.49 239.533C1077.52 243.121 1077.47 254.719 1077.47 254.719L963.496 254.097Z" fill="#28ab7a" fill-rule="nonzero" opacity="1" stroke="none"/>
<path d="M963.625 322.456L963.461 263.036L1076.85 262.871L1077.22 323.305C1077.22 323.305 1076.15 327.545 1071.94 327.626C1067.72 327.707 968.324 327.61 968.324 327.61C968.324 327.61 964.566 327.649 963.625 322.456Z" fill="#f0f0ed" fill-rule="nonzero" opacity="1" stroke="none"/>
<path d="M980.139 290.585L979.76 276.974C979.76 276.974 979.907 275.574 981.643 275.528C983.378 275.483 999.103 275.715 999.103 275.715C999.103 275.715 999.785 275.726 999.875 276.769C999.966 277.811 1000.22 291.494 1000.22 291.494C1000.22 291.494 1000.19 292.507 998.832 292.507C997.474 292.507 981.744 292.62 981.744 292.62C981.744 292.62 980.205 292.975 980.139 290.585Z" fill="#c7cdca" fill-rule="nonzero" opacity="1" stroke="none"/>
<path d="M1010.65 290.585L1010.27 276.974C1010.27 276.974 1010.41 275.574 1012.15 275.528C1013.88 275.483 1029.61 275.715 1029.61 275.715C1029.61 275.715 1030.29 275.726 1030.38 276.769C1030.47 277.811 1030.73 291.494 1030.73 291.494C1030.73 291.494 1030.7 292.507 1029.34 292.507C1027.98 292.507 1012.25 292.62 1012.25 292.62C1012.25 292.62 1010.71 292.975 1010.65 290.585Z" fill="#c7cdca" fill-rule="nonzero" opacity="1" stroke="none"/>
<path d="M1041.27 290.585L1040.89 276.974C1040.89 276.974 1041.04 275.574 1042.78 275.528C1044.51 275.483 1060.24 275.715 1060.24 275.715C1060.24 275.715 1060.92 275.726 1061.01 276.769C1061.1 277.811 1061.36 291.494 1061.36 291.494C1061.36 291.494 1061.32 292.507 1059.96 292.507C1058.61 292.507 1042.88 292.62 1042.88 292.62C1042.88 292.62 1041.34 292.975 1041.27 290.585Z" fill="#c7cdca" fill-rule="nonzero" opacity="1" stroke="none"/>
<path d="M1011.37 314.635L1010.99 301.024C1010.99 301.024 1011.14 299.624 1012.88 299.578C1014.61 299.533 1030.34 299.765 1030.34 299.765C1030.34 299.765 1031.02 299.776 1031.11 300.818C1031.2 301.861 1031.46 315.544 1031.46 315.544C1031.46 315.544 1031.42 316.557 1030.07 316.557C1028.71 316.557 1012.98 316.67 1012.98 316.67C1012.98 316.67 1011.44 317.025 1011.37 314.635Z" fill="#c7cdca" fill-rule="nonzero" opacity="1" stroke="none"/>
<path d="M1041.27 314.635L1040.89 301.024C1040.89 301.024 1041.04 299.624 1042.78 299.578C1044.51 299.533 1060.24 299.765 1060.24 299.765C1060.24 299.765 1060.92 299.776 1061.01 300.818C1061.1 301.861 1061.36 315.544 1061.36 315.544C1061.36 315.544 1061.32 316.557 1059.96 316.557C1058.61 316.557 1042.88 316.67 1042.88 316.67C1042.88 316.67 1041.34 317.025 1041.27 314.635Z" fill="#c7cdca" fill-rule="nonzero" opacity="1" stroke="none"/>
<path d="M980.139 314.635L979.76 301.024C979.76 301.024 979.907 299.624 981.643 299.578C983.378 299.533 999.103 299.765 999.103 299.765C999.103 299.765 999.785 299.776 999.875 300.818C999.966 301.861 1000.22 315.544 1000.22 315.544C1000.22 315.544 1000.19 316.557 998.832 316.557C997.474 316.557 981.744 316.67 981.744 316.67C981.744 316.67 980.205 317.025 980.139 314.635Z" fill="#c7cdca" fill-rule="nonzero" opacity="1" stroke="none"/>
</g>
</svg>
