<?xml version="1.0" encoding="UTF-8" standalone="no"?>
<!DOCTYPE svg PUBLIC "-//W3C//DTD SVG 1.1//EN" "http://www.w3.org/Graphics/SVG/1.1/DTD/svg11.dtd">
<!-- Created with Vectornator (http://vectornator.io/) -->
<svg height="48.0pt" stroke-miterlimit="10" style="fill-rule:nonzero;clip-rule:evenodd;stroke-linecap:round;stroke-linejoin:round;" version="1.1" viewBox="0 0 48 48" width="48.0pt" xml:space="preserve" xmlns="http://www.w3.org/2000/svg" xmlns:xlink="http://www.w3.org/1999/xlink">
<defs/>
<clipPath id="ArtboardFrame">
<rect height="48" width="48" x="0" y="0"/>
</clipPath>
<g clip-path="url(#ArtboardFrame)" id="Layer-1">
<path d="M3.83056 0.271224C2.79569 0.304116 1.85471 0.657833 1.19132 1.33908C0.602259 1.94401 0.232073 2.80719 0.209376 3.93333C-0.0599109 17.2943-0.130131 30.6691 0.368549 44.0238C0.40251 44.9332 0.517289 45.7875 1.16413 46.4416C1.76074 47.045 3.13205 47.6586 3.98974 47.6859C17.0616 48.1007 30.1543 48.1087 43.2259 47.6859C43.9507 47.6624 45.665 47.6514 46.687 46.8799C47.5594 46.2213 47.8004 44.8589 47.8817 44.1008L48 25.3205L47.8419 3.62494C47.7925 2.743 47.6925 1.81108 47.0585 1.18221C46.5313 0.659418 45.2497 0.328288 44.4993 0.309772C30.9474-0.0246027 17.3797-0.159412 3.83056 0.271224Z" fill="#203941" fill-rule="nonzero" opacity="1" stroke="none"/>
<path d="M3.70704 4.70653L3.73837 19.9646C3.73837 19.9646 3.77851 20.4449 4.34143 20.5979L21.4735 20.5903C21.4735 20.5903 22.3223 20.7257 22.3453 19.679L22.2741 4.56044C22.2741 4.56044 22.2673 3.91974 21.6166 3.81407L4.19166 3.81131C4.19166 3.81131 3.70548 3.94706 3.70704 4.70653Z" fill="#27ab79" fill-rule="nonzero" opacity="1" stroke="none"/>
<path d="M25.9696 4.76588L26.001 20.0239C26.001 20.0239 26.0411 20.5042 26.604 20.6572L43.7361 20.6497C43.7361 20.6497 44.5849 20.785 44.6079 19.7384L44.5367 4.61979C44.5367 4.61979 44.5299 3.97908 43.8792 3.87341L26.4542 3.87065C26.4542 3.87065 25.9681 4.00641 25.9696 4.76588Z" fill="#eff0ed" fill-rule="nonzero" opacity="1" stroke="none"/>
<path d="M25.9874 24.6858L26.0187 43.2724C26.0187 43.2724 26.0589 43.8576 26.6218 44.0439L43.7539 44.0347C43.7539 44.0347 44.6027 44.1996 44.6257 42.9246L44.5545 24.5078C44.5545 24.5078 44.5477 23.7273 43.897 23.5986L26.472 23.5952C26.472 23.5952 25.9859 23.7606 25.9874 24.6858Z" fill="#eff0ed" fill-rule="nonzero" opacity="1" stroke="none"/>
<path d="M3.64913 24.973L3.68046 43.2157C3.68046 43.2157 3.7206 43.79 4.28352 43.9729L21.4156 43.9639C21.4156 43.9639 22.2644 44.1257 22.2874 42.8743L22.2162 24.7983C22.2162 24.7983 22.2094 24.0323 21.5587 23.906L4.13375 23.9027C4.13375 23.9027 3.64757 24.065 3.64913 24.973Z" fill="#eff0ed" fill-rule="nonzero" opacity="1" stroke="none"/>
</g>
<g id="Layer-1-copy"/>
</svg>
