<?xml version="1.0" encoding="UTF-8" standalone="no"?>
<!DOCTYPE svg PUBLIC "-//W3C//DTD SVG 1.1//EN" "http://www.w3.org/Graphics/SVG/1.1/DTD/svg11.dtd">
<!-- Created with Vectornator (http://vectornator.io/) -->
<svg height="32.0pt" stroke-miterlimit="10" style="fill-rule:nonzero;clip-rule:evenodd;stroke-linecap:round;stroke-linejoin:round;" version="1.1" viewBox="0 0 32 32" width="32.0pt" xml:space="preserve" xmlns="http://www.w3.org/2000/svg" xmlns:xlink="http://www.w3.org/1999/xlink">
<defs/>
<clipPath id="ArtboardFrame">
<rect height="32" width="32" x="0" y="0"/>
</clipPath>
<g clip-path="url(#ArtboardFrame)" id="Layer-1">
<path d="M2.55371 0.180816C1.86379 0.202744 1.23647 0.438555 0.794214 0.892723C0.401506 1.29601 0.154715 1.87146 0.139584 2.62222C-0.0399406 11.5295-0.0867537 20.4461 0.2457 29.3492C0.26834 29.9555 0.344859 30.525 0.776087 30.9611C1.17383 31.3633 2.08803 31.7724 2.65982 31.7906C11.3744 32.0671 20.1029 32.0725 28.8173 31.7906C29.3005 31.7749 30.4433 31.7676 31.1247 31.2533C31.7063 30.8142 31.8669 29.9059 31.9211 29.4006L32 16.8803L31.8946 2.41663C31.8617 1.82867 31.795 1.20738 31.3723 0.788143C31.0209 0.439612 30.1665 0.218859 29.6662 0.206515C20.6316-0.0164018 11.5864-0.106275 2.55371 0.180816Z" fill="#203941" fill-rule="nonzero" opacity="1" stroke="none"/>
<path d="M2.47136 3.13769L2.49224 13.3097C2.49224 13.3097 2.51901 13.6299 2.89429 13.7319L14.3157 13.7269C14.3157 13.7269 14.8815 13.8171 14.8969 13.1194L14.8494 3.04029C14.8494 3.04029 14.8448 2.61316 14.4111 2.54271L2.79444 2.54087C2.79444 2.54087 2.47032 2.63137 2.47136 3.13769Z" fill="#27ab79" fill-rule="nonzero" opacity="1" stroke="none"/>
<path d="M17.3131 3.17725L17.334 13.3493C17.334 13.3493 17.3607 13.6695 17.736 13.7715L29.1574 13.7664C29.1574 13.7664 29.7232 13.8567 29.7386 13.1589L29.6912 3.07986C29.6912 3.07986 29.6866 2.65272 29.2528 2.58228L17.6362 2.58044C17.6362 2.58044 17.312 2.67094 17.3131 3.17725Z" fill="#eff0ed" fill-rule="nonzero" opacity="1" stroke="none"/>
<path d="M17.325 16.4572L17.3458 28.8483C17.3458 28.8483 17.3726 29.2384 17.7479 29.3626L29.1693 29.3565C29.1693 29.3565 29.7351 29.4664 29.7505 28.6164L29.703 16.3385C29.703 16.3385 29.6984 15.8182 29.2647 15.7324L17.648 15.7302C17.648 15.7302 17.3239 15.8404 17.325 16.4572Z" fill="#eff0ed" fill-rule="nonzero" opacity="1" stroke="none"/>
<path d="M2.43276 16.6487L2.45364 28.8105C2.45364 28.8105 2.4804 29.1933 2.85568 29.3153L14.2771 29.3092C14.2771 29.3092 14.8429 29.4171 14.8583 28.5829L14.8108 16.5322C14.8108 16.5322 14.8062 16.0215 14.3725 15.9373L2.75583 15.9351C2.75583 15.9351 2.43172 16.0433 2.43276 16.6487Z" fill="#eff0ed" fill-rule="nonzero" opacity="1" stroke="none"/>
</g>
</svg>
