<?xml version="1.0" encoding="UTF-8" standalone="no"?>
<!DOCTYPE svg PUBLIC "-//W3C//DTD SVG 1.1//EN" "http://www.w3.org/Graphics/SVG/1.1/DTD/svg11.dtd">
<!-- Created with Vectornator (http://vectornator.io/) -->
<svg height="48.0pt" stroke-miterlimit="10" style="fill-rule:nonzero;clip-rule:evenodd;stroke-linecap:round;stroke-linejoin:round;" version="1.1" viewBox="0 0 48 48" width="48.0pt" xml:space="preserve" xmlns="http://www.w3.org/2000/svg" xmlns:xlink="http://www.w3.org/1999/xlink">
<defs/>
<g id="Layer-1"/>
<clipPath id="ArtboardFrame">
<rect height="48" width="48" x="0" y="0"/>
</clipPath>
<g clip-path="url(#ArtboardFrame)" id="Layer-1-copy">
<path d="M48 26.5573C48.0064 28.4133 46.8926 35.52 44.3932 36.175C42.8599 36.5768 38.1326 34.9308 37.3133 38.1647C37.2889 38.2608 38.8332 43.3633 38.0341 43.9767C35.5738 45.8652 32.5272 46.8613 29.6118 47.9046C26.755 48.927 26.3102 41.339 22.8161 43.6833C20.5756 45.1865 20.9139 48.4991 17.4979 47.5637C15.0529 46.8941 12.7242 45.7877 10.5177 44.534C8.09532 43.1574 13.3257 37.7252 9.00278 36.3744C5.72867 35.3513 3.25327 38.2245 1.96711 34.3588C1.04257 31.5799 0.0807437 28.7224 0.000324732 25.7931C-0.045147 24.1367 4.69961 22.9434 4.95357 22.5972L5.4214 18.9405C4.80789 17.304 0.687981 16.1191 2.24982 13.3031C3.70556 10.6785 5.64154 8.28479 7.85897 6.27108C9.36748 4.90117 12.6276 7.91131 13.3212 7.93383L17.2145 6.42539C18.2224 5.18331 16.7955 0.929144 19.7003 0.38967C22.5052-0.131226 25.4524-0.129607 28.257 0.392846C30.8099 0.868432 30.0633 5.86125 30.805 6.68131L34.4202 8.05651C34.9637 8.01519 38.6976 4.95765 40.1135 6.41504C42.2041 8.5669 44.0764 10.9714 45.5856 13.5695C47.0856 16.1519 43.2521 17.1077 42.5962 18.567L42.5585 22.4577C43.4229 23.6444 45.4582 23.2208 46.6286 24.1026C47.3753 24.6651 47.9967 25.6186 48 26.5573Z" fill="#223d45" fill-rule="nonzero" opacity="1" stroke="none"/>
<path d="M29.7009 44.5641C28.7858 43.3311 28.3565 41.4821 26.9555 40.8651L21.1939 40.8171C19.6639 41.4116 19.2333 44.8972 17.7021 44.3058C16.2811 43.757 14.8843 43.1269 13.5604 42.3711C12.0037 41.4823 14.546 38.6845 13.9604 36.9824L10.2348 33.1189C8.63204 32.3866 6.71827 32.9531 4.96001 32.8702C4.41188 30.9936 3.6399 29.1689 3.31563 27.2402C3.02682 25.5225 7.07624 26.358 7.93026 24.8426L8.86079 17.7277C8.54251 16.1487 5.01183 15.2482 5.90978 13.9145C6.9449 12.377 7.99935 10.8179 9.33831 9.53992C10.4573 8.47192 11.9871 11.6011 13.527 11.517L19.5117 9.15394C21.4909 8.12675 19.2549 3.36739 21.5596 3.2839C23.1939 3.22469 24.8502 3.16804 26.4632 3.43956C28.1217 3.71876 26.5415 7.10368 27.6534 8.37336L33.6285 11.5994C35.5354 12.3964 37.2555 8.33216 38.6249 9.76417C39.9662 11.1667 41.0721 12.7863 42.1519 14.4013C43.0935 15.8094 39.4049 16.7159 38.9623 18.3536L39.706 24.2582C40.3811 25.2958 44.9938 25.3291 44.6428 27.8576C44.4187 29.4721 44.0087 31.0576 43.5825 32.6303C43.0731 34.5097 39.5763 32.3737 37.798 33.143L34.0865 37.1016C33.5139 38.8072 36.3829 41.5834 34.8163 42.4524C33.2022 43.3478 31.4061 43.8602 29.7009 44.5641Z" fill="#7a9298" fill-rule="nonzero" opacity="1" stroke="none"/>
<path d="M21.1033 33.406C21.1033 33.406 17.0903 32.7859 15.307 27.3072C13.5236 21.8284 17.6369 17.8472 17.6369 17.8472C17.6369 17.8472 20.6681 14.336 26.1426 15.6776C31.6172 17.0193 32.8917 22.0512 32.8917 22.0512C32.8917 22.0512 34.7459 35.5064 21.1033 33.406Z" fill="#233843" fill-rule="nonzero" opacity="1" stroke="none"/>
<path d="M25.7663 29.9605C25.7663 29.9605 18.4253 31.5052 18.4615 24.293C18.4977 17.0808 26.3506 19.2777 26.3506 19.2777C26.3506 19.2777 34.5624 24.9239 25.7663 29.9605Z" fill="#eeefed" fill-rule="nonzero" opacity="1" stroke="none"/>
</g>
</svg>
