<?xml version="1.0" encoding="UTF-8" standalone="no"?>
<!DOCTYPE svg PUBLIC "-//W3C//DTD SVG 1.1//EN" "http://www.w3.org/Graphics/SVG/1.1/DTD/svg11.dtd">
<!-- Created with Vectornator (http://vectornator.io/) -->
<svg height="48.0pt" stroke-miterlimit="10" style="fill-rule:nonzero;clip-rule:evenodd;stroke-linecap:round;stroke-linejoin:round;" version="1.1" viewBox="0 0 48 48" width="48.0pt" xml:space="preserve" xmlns="http://www.w3.org/2000/svg" xmlns:xlink="http://www.w3.org/1999/xlink">
<defs/>
<clipPath id="ArtboardFrame">
<rect height="48" width="48" x="0" y="0"/>
</clipPath>
<g clip-path="url(#ArtboardFrame)" id="Calendar-Icon">
<path d="M0 42.584L0.0798538 9.12845C0.0798538 9.12845 0.833702 4.77706 5.49373 4.57257C10.1538 4.36808 10.8756 4.46807 10.8756 4.46807L10.8835 1.09663C10.8835 1.09663 12.9561-1.36622 14.2997 1.23825C14.2997 1.23825 14.3484 4.40868 14.3484 4.40868L33.6249 4.45718L33.6682 1.08273C33.6682 1.08273 35.2639-1.37909 37.0635 1.12154L37.0504 4.42035L43.159 4.60095C43.159 4.60095 47.8489 5.48258 48 9.54023L47.9126 42.3376C47.9126 42.3376 47.4441 47.1579 42.5538 47.32L5.02391 47.3152C5.02391 47.3152 0.789362 46.9224 0 42.584Z" fill="#213943" fill-rule="nonzero" opacity="1" stroke="none"/>
<path d="M3.46919 15.2135L3.41715 9.97459C3.41715 9.97459 3.52523 8.46266 5.26742 7.89362L10.904 7.82947L10.9197 10.4558C10.9197 10.4558 12.3745 13.7886 14.3097 10.2966C14.3097 10.2966 14.3497 7.84234 14.3497 7.84234L33.6187 7.87019L33.6125 10.3367C33.6125 10.3367 35.0694 13.2845 37.0168 10.2146L37.0932 7.82904L42.5388 7.86516C42.5388 7.86516 44.225 8.25131 44.5459 9.88459L44.5291 15.2388L3.46919 15.2135Z" fill="#27ac79" fill-rule="nonzero" opacity="1" stroke="none"/>
<path d="M3.41715 18.4769L3.41715 41.172C3.41715 41.172 3.15059 43.3558 5.68375 43.9244L41.772 44.0966C41.772 44.0966 43.9119 43.848 44.5459 41.6674L44.5459 18.4211L3.41715 18.4769Z" fill="#f0f0ef" fill-rule="nonzero" opacity="1" stroke="none"/>
<path d="M9.34459 29.2496L9.37959 23.66C9.37959 23.66 9.27907 23.2038 9.81806 23.2579L16.2458 23.2068C16.2458 23.2068 16.5373 23.3231 16.5368 23.66L16.5685 29.3305C16.5685 29.3305 16.4747 29.7156 16.1114 29.7188L9.75921 29.7066C9.75921 29.7066 9.32133 29.6098 9.34459 29.2496Z" fill="#c8cfcb" fill-rule="nonzero" opacity="1" stroke="none"/>
<path d="M20.366 29.1397L20.401 23.5501C20.401 23.5501 20.3005 23.0939 20.8395 23.148L27.2672 23.0968C27.2672 23.0968 27.5587 23.2132 27.5582 23.5501L27.5899 29.2206C27.5899 29.2206 27.4961 29.6056 27.1328 29.6089L20.7806 29.5967C20.7806 29.5967 20.3428 29.4999 20.366 29.1397Z" fill="#c8cfcb" fill-rule="nonzero" opacity="1" stroke="none"/>
<path d="M20.366 38.7581L20.401 33.1685C20.401 33.1685 20.3005 32.7124 20.8395 32.7664L27.2672 32.7153C27.2672 32.7153 27.5587 32.8316 27.5582 33.1685L27.5899 38.839C27.5899 38.839 27.4961 39.2241 27.1328 39.2273L20.7806 39.2151C20.7806 39.2151 20.3428 39.1183 20.366 38.7581Z" fill="#c8cfcb" fill-rule="nonzero" opacity="1" stroke="none"/>
<path d="M31.4579 38.6911L31.4929 33.1015C31.4929 33.1015 31.3924 32.6453 31.9314 32.6993L38.3591 32.6482C38.3591 32.6482 38.6507 32.7646 38.6501 33.1015L38.6818 38.772C38.6818 38.772 38.5881 39.157 38.2247 39.1603L31.8726 39.1481C31.8726 39.1481 31.4347 39.0512 31.4579 38.6911Z" fill="#c8cfcb" fill-rule="nonzero" opacity="1" stroke="none"/>
<path d="M31.4564 29.2496L31.4914 23.66C31.4914 23.66 31.3909 23.2038 31.9298 23.2579L38.3576 23.2068C38.3576 23.2068 38.6491 23.3231 38.6486 23.66L38.6803 29.3305C38.6803 29.3305 38.5865 29.7156 38.2232 29.7188L31.871 29.7066C31.871 29.7066 31.4331 29.6098 31.4564 29.2496Z" fill="#c8cfcb" fill-rule="nonzero" opacity="1" stroke="none"/>
<path d="M9.34459 38.6911L9.37959 33.1015C9.37959 33.1015 9.27907 32.6453 9.81806 32.6993L16.2458 32.6482C16.2458 32.6482 16.5373 32.7646 16.5368 33.1015L16.5685 38.772C16.5685 38.772 16.4747 39.157 16.1114 39.1603L9.75921 39.1481C9.75921 39.1481 9.32133 39.0512 9.34459 38.6911Z" fill="#c8cfcb" fill-rule="nonzero" opacity="1" stroke="none"/>
</g>
</svg>
