<?xml version="1.0" encoding="UTF-8" standalone="no"?>
<!DOCTYPE svg PUBLIC "-//W3C//DTD SVG 1.1//EN" "http://www.w3.org/Graphics/SVG/1.1/DTD/svg11.dtd">
<!-- Created with Vectornator (http://vectornator.io/) -->
<svg height="48.0pt" stroke-miterlimit="10" style="fill-rule:nonzero;clip-rule:evenodd;stroke-linecap:round;stroke-linejoin:round;" version="1.1" viewBox="0 0 48 48" width="48.0pt" xml:space="preserve" xmlns="http://www.w3.org/2000/svg" xmlns:xlink="http://www.w3.org/1999/xlink">
<defs/>
<clipPath id="ArtboardFrame">
<rect height="48" width="48" x="0" y="0"/>
</clipPath>
<g clip-path="url(#ArtboardFrame)" id="Home-Icon">
<path d="M43.188 25.4162C43.1416 31.35 43.5297 37.3067 43.0488 43.2175C42.8814 45.2752 40.5285 47.7683 38.5443 47.7986C28.7558 47.9478 18.9554 48.2027 9.17611 47.7166C7.7892 47.6477 6.27423 46.1718 5.67135 44.8325C5.40329 44.237 5.13061 43.6016 5.11097 42.9386C4.9374 37.0773 5.09983 31.2099 5.09426 25.3456C3.87011 25.3098 0.762161 25.7642 0.110597 23.6857C-0.481395 21.7973 1.49603 20.4216 1.49603 20.4216C1.49603 20.4216 14.8079 7.37001 22.4446 0.67644C23.0444 0.150662 23.5987-0.0551599 24.3659 0.0124523C24.7814 0.0490733 25.7612 0.66867 26.0784 0.963555C33.3615 7.7336 40.2609 14.5531 47.4107 21.49C48.9016 22.9366 47.1696 25.271 46.5307 25.3355C45.0125 25.4889 43.6061 25.3943 43.188 25.4162Z" fill="#213941" fill-rule="nonzero" opacity="1" stroke="none"/>
<path d="M8.20793 25.182L8.25447 42.5509C8.25447 42.5509 8.4719 43.9747 9.82459 44.3424C11.1773 44.7102 18.0595 44.4492 18.0595 44.4492L18.1768 34.4839C18.1768 34.4839 18.4932 32.5334 19.7259 32.5506C20.9586 32.5679 28.6031 32.4346 28.6031 32.4346C28.6031 32.4346 29.7449 32.9129 30.0733 34.2517C30.4017 35.5904 30.1155 44.3703 30.1155 44.3703L38.1452 44.4468C38.1452 44.4468 39.4185 44.064 39.8461 42.4844C40.2737 40.9048 39.9882 25.2489 39.9882 25.2489L8.20793 25.182Z" fill="#efefed" fill-rule="nonzero" opacity="1" stroke="none"/>
<path d="M21.2163 35.7948L21.2382 44.539L27.0277 44.539L26.9622 35.7709L21.2163 35.7948Z" fill="#2aae7c" fill-rule="nonzero" opacity="1" stroke="none"/>
<path d="M4.79592 22.1527L23.643 3.92806C23.643 3.92806 23.9798 3.50372 24.3864 3.92101C24.793 4.3383 43.4417 22.1537 43.4417 22.1537L4.79592 22.1527Z" fill="#28ad7a" fill-rule="nonzero" opacity="1" stroke="none"/>
</g>
</svg>
